<?xml version="1.0" encoding="UTF-8"?>
<!-- Generator: Adobe Illustrator 27.8.1, SVG Export Plug-In . SVG Version: 6.00 Build 0)  -->
<svg version="1.1" xmlns="http://www.w3.org/2000/svg" xmlns:xlink="http://www.w3.org/1999/xlink" x="0px" y="0px" viewBox="0 0 543.09 81.24" style="enable-background:new 0 0 543.09 81.24;" xml:space="preserve">
<style type="text/css">
	.st0{display:none;}
	.st1{display:inline;fill:none;stroke:#009FE3;stroke-width:0.216;stroke-miterlimit:22.9256;}
	.st2{display:inline;fill-rule:evenodd;clip-rule:evenodd;fill:none;stroke:#009FE3;stroke-width:0.216;stroke-miterlimit:22.9256;}
	.st3{display:inline;fill-rule:evenodd;clip-rule:evenodd;fill:none;stroke:#B2B2B2;stroke-width:0.216;stroke-miterlimit:22.9256;}
	.st4{display:inline;fill:#DADADA;}
	.st5{display:inline;fill:none;stroke:#F59A00;stroke-width:0.216;stroke-miterlimit:22.9256;}
	.st6{display:inline;fill:none;stroke:#EF7D00;stroke-width:0.216;stroke-miterlimit:22.9256;}
	.st7{display:inline;}
	.st8{fill-rule:evenodd;clip-rule:evenodd;fill:#DADADA;}
	.st9{fill:none;stroke:#C6C6C6;stroke-width:0.216;stroke-miterlimit:22.9256;}
	.st10{fill:none;stroke:#B2B2B2;stroke-width:0.216;stroke-miterlimit:22.9256;}
	.st11{display:inline;fill:none;stroke:#C6C6C6;stroke-width:0.216;stroke-miterlimit:22.9256;}
	.st12{display:inline;fill:none;stroke:#B2B2B2;stroke-width:0.216;stroke-miterlimit:22.9256;}
	.st13{fill:#DADADA;}
	.st14{fill-rule:evenodd;clip-rule:evenodd;fill:#009640;}
	
		.st15{display:inline;fill-rule:evenodd;clip-rule:evenodd;fill:none;stroke:#000000;stroke-width:0.2173;stroke-miterlimit:22.9256;}
	
		.st16{display:inline;fill-rule:evenodd;clip-rule:evenodd;fill:none;stroke:#C6C6C6;stroke-width:0.216;stroke-miterlimit:22.9256;}
	
		.st17{display:inline;fill-rule:evenodd;clip-rule:evenodd;fill:none;stroke:#E30613;stroke-width:0.216;stroke-miterlimit:22.9256;}
	.st18{display:inline;fill-rule:evenodd;clip-rule:evenodd;fill:#009640;}
	.st19{display:inline;fill:none;stroke:#EF7D00;stroke-width:0.2175;stroke-miterlimit:22.9256;}
	.st20{display:inline;fill-rule:evenodd;clip-rule:evenodd;fill:#DADADA;}
	.st21{fill:#B3B1B1;}
	.st22{fill:none;stroke:#B3B1B1;stroke-width:0.216;stroke-miterlimit:22.926;}
	.st23{display:inline;fill:none;}
	.st24{display:inline;fill:none;stroke:#020203;stroke-width:0.216;stroke-miterlimit:22.926;}
	.st25{display:inline;fill:none;stroke:#289BD3;stroke-width:0.216;stroke-miterlimit:22.926;}
	.st26{display:inline;fill:none;stroke:#F39A10;stroke-width:0.216;stroke-miterlimit:22.926;}
	.st27{display:inline;fill:#B3B1B1;}
	.st28{display:inline;fill:none;stroke:#B3B1B1;stroke-width:0.216;stroke-miterlimit:22.926;}
	.st29{display:inline;fill:none;stroke:#E30613;stroke-width:0.216;stroke-miterlimit:22.9256;}
	.st30{fill-rule:evenodd;clip-rule:evenodd;fill:none;stroke:#009FE3;stroke-width:0.216;stroke-miterlimit:22.9256;}
	.st31{fill-rule:evenodd;clip-rule:evenodd;fill:none;stroke:#B2B2B2;stroke-width:0.216;stroke-miterlimit:22.9256;}
	.st32{display:inline;fill:none;stroke:#E30613;stroke-width:0.2175;stroke-miterlimit:22.9256;}
	.st33{display:inline;fill:none;stroke:#C6C6C6;stroke-width:0.2175;stroke-miterlimit:22.9256;}
	.st34{fill:none;stroke:#E30613;stroke-width:0.2175;stroke-miterlimit:22.9256;}
	.st35{fill:none;stroke:#C6C6C6;stroke-width:0.2175;stroke-miterlimit:22.9256;}
	.st36{fill:#0067A2;}
	.st37{fill:#0467A2;}
	.st38{fill:#F39A10;}
	.st39{fill:#F59A00;}
	.st40{fill-rule:evenodd;clip-rule:evenodd;fill:#0067A2;}
	.st41{fill-rule:evenodd;clip-rule:evenodd;fill:#F59A00;}
	.st42{fill:#FFFFFF;}
	.st43{fill-rule:evenodd;clip-rule:evenodd;fill:#FFFFFF;}
	.st44{fill:#0068A3;}
</style>
<g id="Capa_1" class="st0">
	<g class="st7">
		<path class="st21" d="M235.6,40.75c0,3.66-0.88,6.52-2.63,8.6s-4.39,3.11-7.9,3.11h-15.58c-0.28,0-0.52-0.1-0.71-0.29    c-0.19-0.19-0.29-0.43-0.29-0.72v-5.29c0-0.28,0.09-0.52,0.29-0.72c0.19-0.19,0.43-0.29,0.71-0.29h15.5    c1.55,0,2.73-0.38,3.53-1.15c0.8-0.77,1.2-1.86,1.2-3.29c0-1.43-0.4-2.52-1.18-3.29c-0.79-0.77-1.97-1.15-3.55-1.15h-15.5    c-0.28,0-0.52-0.1-0.71-0.29c-0.19-0.19-0.29-0.43-0.29-0.72v-5.33c0-0.29,0.09-0.52,0.29-0.7c0.19-0.18,0.43-0.27,0.71-0.27    h15.58c3.51,0,6.15,1.04,7.9,3.13C234.72,34.18,235.6,37.06,235.6,40.75"/>
		<line class="st22" x1="208.51" y1="0.2" x2="208.51" y2="81.22"/>
		<line class="st22" x1="235.66" y1="0.2" x2="235.66" y2="81.22"/>
	</g>
	<rect x="0.38" class="st23" width="705.84" height="81.13"/>
	<rect x="0.38" class="st24" width="705.76" height="81.13"/>
	<line class="st25" x1="0.45" y1="58.43" x2="706.14" y2="58.43"/>
	<line class="st26" x1="0.43" y1="0.1" x2="405.13" y2="0.1"/>
	<path class="st27" d="M67.85,42.11c0-1.45,0.38-2.57,1.12-3.37c0.75-0.8,1.89-1.2,3.41-1.2h6.63c0.12,0,0.22,0.04,0.29,0.1   c0.08,0.07,0.11,0.16,0.11,0.28v1.47c0,0.12-0.04,0.21-0.11,0.29c-0.08,0.07-0.17,0.11-0.29,0.11h-6.63c-0.86,0-1.5,0.2-1.94,0.6   c-0.43,0.4-0.65,0.97-0.65,1.7c0,0.74,0.22,1.3,0.65,1.7c0.43,0.4,1.08,0.6,1.94,0.6h6.63c0.12,0,0.22,0.04,0.29,0.11   c0.08,0.08,0.11,0.17,0.11,0.29v1.47c0,0.12-0.04,0.21-0.11,0.28c-0.08,0.07-0.17,0.1-0.29,0.1h-6.63c-1.52,0-2.66-0.4-3.41-1.19   C68.23,44.66,67.85,43.55,67.85,42.11"/>
	<path class="st27" d="M57.72,11.41c-1.48,0-2.62-0.37-3.44-1.1c-0.82-0.74-1.22-1.85-1.22-3.34V0.46c0-0.12,0.04-0.21,0.11-0.29   c0.07-0.07,0.17-0.11,0.28-0.11h1.5c0.12,0,0.22,0.04,0.29,0.11c0.08,0.08,0.12,0.17,0.12,0.29v6.51c0,0.84,0.2,1.48,0.61,1.9   c0.41,0.43,0.99,0.64,1.74,0.64c0.75,0,1.33-0.21,1.74-0.64c0.41-0.43,0.61-1.06,0.61-1.9V0.46c0-0.12,0.04-0.21,0.11-0.29   c0.08-0.07,0.17-0.11,0.29-0.11h1.5c0.12,0,0.21,0.04,0.28,0.11c0.07,0.08,0.11,0.17,0.11,0.29v6.51c0,1.49-0.4,2.61-1.21,3.34   C60.33,11.04,59.19,11.41,57.72,11.41"/>
	<path class="st27" d="M57.69,11.41c1.48,0,2.62,0.37,3.44,1.1c0.82,0.74,1.22,1.85,1.22,3.34v6.51c0,0.12-0.03,0.21-0.11,0.29   c-0.07,0.07-0.17,0.11-0.28,0.11h-1.5c-0.12,0-0.22-0.04-0.29-0.11c-0.08-0.08-0.11-0.17-0.11-0.29v-6.51c0-0.84-0.2-1.48-0.61-1.9   c-0.41-0.43-0.99-0.64-1.74-0.64s-1.33,0.21-1.74,0.64c-0.41,0.43-0.61,1.06-0.61,1.9v6.51c0,0.12-0.04,0.21-0.11,0.29   c-0.08,0.07-0.17,0.11-0.29,0.11h-1.5c-0.12,0-0.22-0.04-0.29-0.11c-0.07-0.08-0.11-0.17-0.11-0.29v-6.51   c0-1.49,0.4-2.61,1.21-3.34C55.09,11.78,56.23,11.41,57.69,11.41"/>
	<line class="st28" x1="79.38" y1="0.06" x2="79.38" y2="81.08"/>
	<path class="st27" d="M12,42.11c0-1.45,0.37-2.57,1.12-3.37c0.75-0.8,1.89-1.2,3.41-1.2h6.63c0.12,0,0.22,0.04,0.29,0.1   c0.08,0.07,0.11,0.16,0.11,0.28v1.47c0,0.12-0.04,0.21-0.11,0.29c-0.07,0.07-0.17,0.11-0.29,0.11h-6.63c-0.86,0-1.51,0.2-1.94,0.6   c-0.44,0.4-0.65,0.97-0.65,1.7c0,0.74,0.22,1.3,0.65,1.7c0.43,0.4,1.08,0.6,1.94,0.6h6.63c0.12,0,0.22,0.04,0.29,0.11   c0.08,0.08,0.11,0.17,0.11,0.29v1.47c0,0.12-0.04,0.21-0.11,0.28c-0.07,0.07-0.17,0.1-0.29,0.1h-6.63c-1.52,0-2.66-0.4-3.41-1.19   C12.38,44.66,12,43.55,12,42.11"/>
	<path class="st27" d="M12.01,42.11c0-1.45-0.38-2.57-1.12-3.37c-0.75-0.8-1.89-1.2-3.41-1.2H0.84c-0.12,0-0.22,0.04-0.29,0.1   c-0.08,0.07-0.11,0.16-0.11,0.28v1.47c0,0.12,0.04,0.21,0.11,0.29c0.08,0.07,0.17,0.11,0.29,0.11h6.63c0.86,0,1.51,0.2,1.94,0.6   c0.43,0.4,0.65,0.97,0.65,1.7c0,0.74-0.22,1.3-0.65,1.7c-0.43,0.4-1.08,0.6-1.94,0.6H0.84c-0.12,0-0.22,0.04-0.29,0.11   c-0.08,0.08-0.11,0.17-0.11,0.29v1.47c0,0.12,0.04,0.21,0.11,0.28c0.08,0.07,0.17,0.1,0.29,0.1h6.63c1.52,0,2.66-0.4,3.41-1.19   C11.63,44.66,12.01,43.55,12.01,42.11"/>
	<path class="st27" d="M57.72,69.73c-1.48,0-2.62,0.37-3.44,1.1c-0.82,0.74-1.22,1.85-1.22,3.34v6.51c0,0.12,0.04,0.21,0.11,0.29   c0.07,0.07,0.17,0.11,0.28,0.11h1.5c0.12,0,0.22-0.04,0.29-0.11c0.08-0.08,0.12-0.17,0.12-0.29v-6.51c0-0.84,0.2-1.48,0.61-1.9   c0.41-0.43,0.99-0.64,1.74-0.64c0.75,0,1.33,0.21,1.74,0.64c0.41,0.43,0.61,1.06,0.61,1.9v6.51c0,0.12,0.04,0.21,0.11,0.29   c0.08,0.07,0.17,0.11,0.29,0.11h1.5c0.12,0,0.21-0.04,0.28-0.11c0.07-0.08,0.11-0.17,0.11-0.29v-6.51c0-1.49-0.4-2.61-1.21-3.34   C60.33,70.1,59.19,69.73,57.72,69.73"/>
	<path class="st27" d="M57.69,69.73c1.48,0,2.62-0.37,3.44-1.1c0.82-0.74,1.22-1.85,1.22-3.34v-6.51c0-0.12-0.03-0.21-0.11-0.29   c-0.07-0.07-0.17-0.11-0.28-0.11h-1.5c-0.12,0-0.22,0.04-0.29,0.11c-0.08,0.08-0.11,0.17-0.11,0.29v6.51c0,0.84-0.2,1.48-0.61,1.9   c-0.41,0.43-0.99,0.64-1.74,0.64s-1.33-0.21-1.74-0.64c-0.41-0.43-0.61-1.06-0.61-1.9v-6.51c0-0.12-0.04-0.21-0.11-0.29   c-0.08-0.07-0.17-0.11-0.29-0.11h-1.5c-0.12,0-0.22,0.04-0.29,0.11c-0.07,0.08-0.11,0.17-0.11,0.29v6.51c0,1.49,0.4,2.61,1.21,3.34   C55.09,69.36,56.23,69.73,57.69,69.73"/>
	<line class="st25" x1="0.45" y1="22.8" x2="706.14" y2="22.8"/>
	<line class="st25" x1="-0.43" y1="42.36" x2="705.25" y2="42.36"/>
	<line class="st25" x1="0.01" y1="47.73" x2="705.7" y2="47.73"/>
	<line class="st26" x1="0.45" y1="31.73" x2="706.14" y2="31.73"/>
	<g class="st7">
		<path class="st22" d="M372.33,0.19v81.02 M384.02,0.19v81.02"/>
		<path class="st21" d="M372.39,42.24c0-1.45,0.38-2.57,1.12-3.37c0.75-0.8,1.88-1.2,3.4-1.2h6.63c0.12,0,0.22,0.04,0.29,0.1    c0.08,0.07,0.11,0.16,0.11,0.28v1.47c0,0.12-0.04,0.21-0.11,0.29c-0.08,0.07-0.17,0.11-0.29,0.11h-6.63c-0.86,0-1.51,0.2-1.94,0.6    c-0.44,0.4-0.65,0.97-0.65,1.7c0,0.74,0.22,1.3,0.65,1.7c0.43,0.4,1.08,0.6,1.94,0.6h6.63c0.12,0,0.22,0.04,0.29,0.11    c0.08,0.08,0.11,0.17,0.11,0.29v1.47c0,0.12-0.04,0.21-0.11,0.28c-0.08,0.07-0.17,0.1-0.29,0.1h-6.63c-1.52,0-2.65-0.4-3.4-1.19    C372.76,44.8,372.39,43.68,372.39,42.24"/>
	</g>
	<g class="st7">
		<line class="st22" x1="519.61" y1="0.31" x2="519.61" y2="81.33"/>
		<path class="st22" d="M531.23,0.37v81.02 M542.8,0.37v81.02"/>
		<path class="st21" d="M531.22,43.25c0-1.45,0.38-2.57,1.12-3.37c0.75-0.8,1.89-1.2,3.41-1.2h6.63c0.12,0,0.22,0.04,0.29,0.1    c0.08,0.07,0.11,0.16,0.11,0.28v1.47c0,0.12-0.04,0.21-0.11,0.29c-0.08,0.07-0.17,0.11-0.29,0.11h-6.63c-0.86,0-1.51,0.2-1.94,0.6    c-0.44,0.4-0.65,0.97-0.65,1.7c0,0.74,0.22,1.3,0.65,1.7c0.43,0.4,1.08,0.6,1.94,0.6h6.63c0.12,0,0.22,0.04,0.29,0.11    c0.08,0.08,0.11,0.17,0.11,0.29v1.47c0,0.12-0.04,0.21-0.11,0.28c-0.08,0.07-0.17,0.1-0.29,0.1h-6.63c-1.52,0-2.66-0.4-3.41-1.19    C531.6,45.81,531.22,44.69,531.22,43.25"/>
		<path class="st21" d="M531.18,43.24c0-1.45-0.38-2.57-1.12-3.37c-0.75-0.8-1.88-1.2-3.4-1.2h-6.63c-0.12,0-0.22,0.04-0.29,0.1    c-0.08,0.07-0.11,0.16-0.11,0.28v1.47c0,0.12,0.04,0.21,0.11,0.29c0.08,0.07,0.17,0.11,0.29,0.11h6.63c0.86,0,1.51,0.2,1.94,0.6    c0.44,0.4,0.65,0.97,0.65,1.7c0,0.74-0.22,1.3-0.65,1.7c-0.43,0.4-1.08,0.6-1.94,0.6h-6.63c-0.12,0-0.22,0.04-0.29,0.11    c-0.08,0.08-0.11,0.17-0.11,0.29v1.47c0,0.12,0.04,0.21,0.11,0.28c0.08,0.07,0.17,0.1,0.29,0.1h6.63c1.52,0,2.65-0.4,3.4-1.19    C530.81,45.79,531.18,44.68,531.18,43.24"/>
	</g>
	<g class="st7">
		<path class="st21" d="M265.78,40.77c0,3.66-0.88,6.52-2.63,8.6s-4.39,3.11-7.9,3.11h-15.58c-0.28,0-0.52-0.1-0.71-0.29    c-0.19-0.19-0.29-0.43-0.29-0.72v-5.29c0-0.28,0.09-0.52,0.29-0.72c0.19-0.19,0.43-0.29,0.71-0.29h15.5    c1.55,0,2.73-0.38,3.53-1.15c0.8-0.77,1.2-1.86,1.2-3.29c0-1.43-0.4-2.52-1.18-3.29c-0.79-0.77-1.97-1.15-3.55-1.15h-15.5    c-0.28,0-0.52-0.1-0.71-0.29c-0.19-0.19-0.29-0.43-0.29-0.72v-5.33c0-0.29,0.09-0.52,0.29-0.7c0.19-0.18,0.43-0.27,0.71-0.27    h15.58c3.51,0,6.15,1.04,7.9,3.13C264.9,34.21,265.78,37.09,265.78,40.77"/>
		<line class="st22" x1="238.68" y1="0.23" x2="238.68" y2="81.24"/>
		<line class="st22" x1="265.83" y1="0.23" x2="265.83" y2="81.24"/>
	</g>
</g>
<g id="Capa_5">
</g>
<g id="Capa_2">
	<path class="st37" d="M54.2,22.76c9.07,0,13.61,6.68,13.61,14.47c0.11,3.55,0,5.58,0,10.02h-3.4c0,0-2.99,6.35,2.27,10.02   c0,0.22-19.4,6.28-23.82-12.24c0,0.22,10.03,6.23,15.88,4.45c0,0,2.28-8.31,0.59-13.34c-2.19-6.51-11.88-4.68-16.46-2.07   c-11.38,6.49-14.99,16.56-19.29,24.31C23.57,58.38,26.4,22.76,54.2,22.76"/>
	<path class="st38" d="M195.51,58.75c-3.71,0-6.62-0.88-8.73-2.63s-3.24-4.33-3.37-7.71c-0.03-0.69-0.04-1.81-0.04-3.36   c0-1.58,0.01-2.72,0.04-3.43c0.13-3.31,1.26-5.86,3.4-7.65c2.14-1.79,5.04-2.69,8.69-2.69c2.31,0,4.38,0.37,6.21,1.11   c1.83,0.74,3.27,1.81,4.34,3.21c1.06,1.4,1.62,3.05,1.67,4.96c0,0.23-0.09,0.42-0.25,0.57c-0.17,0.15-0.37,0.23-0.6,0.23h-5.52   c-0.36,0-0.63-0.07-0.8-0.21c-0.17-0.14-0.32-0.4-0.45-0.78c-0.36-1.25-0.92-2.12-1.65-2.62c-0.74-0.5-1.72-0.74-2.94-0.74   c-2.93,0-4.45,1.6-4.55,4.81c-0.03,0.69-0.04,1.74-0.04,3.17c0,1.42,0.01,2.51,0.04,3.24c0.1,3.21,1.62,4.81,4.55,4.81   c1.19,0,2.17-0.26,2.94-0.76c0.77-0.51,1.32-1.37,1.65-2.6c0.1-0.38,0.25-0.64,0.43-0.78c0.18-0.14,0.45-0.21,0.82-0.21h5.52   c0.23,0,0.43,0.08,0.6,0.23c0.17,0.15,0.25,0.34,0.25,0.57c-0.05,1.91-0.61,3.56-1.67,4.96c-1.06,1.4-2.51,2.47-4.34,3.21   C199.89,58.38,197.82,58.75,195.51,58.75 M167.91,58.75c-3.76,0-6.7-0.9-8.83-2.69c-2.13-1.79-3.26-4.36-3.38-7.69   c-0.03-0.71-0.04-1.87-0.04-3.47c0-1.6,0.01-2.77,0.04-3.51c0.1-3.21,1.24-5.69,3.4-7.46c2.17-1.77,5.1-2.65,8.81-2.65   c2.49,0,4.66,0.39,6.52,1.18c1.85,0.79,3.27,1.8,4.24,3.03c0.97,1.23,1.49,2.5,1.54,3.8c0,0.23-0.08,0.43-0.25,0.59   c-0.17,0.17-0.37,0.25-0.6,0.25h-6.03c-0.26,0-0.46-0.04-0.6-0.13c-0.14-0.09-0.28-0.22-0.41-0.4c-0.31-0.71-0.81-1.32-1.5-1.83   c-0.69-0.51-1.65-0.76-2.9-0.76c-3.01,0-4.57,1.53-4.67,4.58c-0.03,0.71-0.04,1.81-0.04,3.28c0,1.48,0.01,2.58,0.04,3.32   c0.1,3.23,1.69,4.85,4.75,4.85c1.5,0,2.7-0.37,3.58-1.11c0.88-0.74,1.32-1.86,1.32-3.36v-0.69h-3.46c-0.28,0-0.52-0.1-0.72-0.29   c-0.2-0.19-0.29-0.43-0.29-0.71V43.9c0-0.28,0.1-0.52,0.29-0.71c0.19-0.19,0.43-0.29,0.72-0.29h9.88c0.28,0,0.53,0.1,0.72,0.29   c0.19,0.19,0.29,0.43,0.29,0.71v4.43c0,2.16-0.51,4.03-1.54,5.59c-1.02,1.57-2.47,2.76-4.34,3.59   C172.58,58.33,170.4,58.75,167.91,58.75 M142.29,43.71c1.06,0,1.9-0.27,2.51-0.82c0.61-0.55,0.91-1.35,0.91-2.42   c0-0.99-0.28-1.79-0.84-2.4c-0.56-0.61-1.42-0.92-2.59-0.92h-4.36v6.57H142.29z M131.48,58.37c-0.26,0-0.49-0.1-0.68-0.29   c-0.2-0.19-0.29-0.41-0.29-0.67V32.64c0-0.28,0.09-0.52,0.27-0.71c0.18-0.19,0.41-0.29,0.7-0.29h11.01c3.37,0,6.02,0.75,7.94,2.25   c1.92,1.5,2.88,3.7,2.88,6.61s-0.96,5.07-2.88,6.51c-1.92,1.44-4.57,2.16-7.94,2.16h-4.44v8.25c0,0.25-0.09,0.48-0.27,0.67   c-0.18,0.19-0.42,0.29-0.7,0.29H131.48z M108.54,58.37c-0.26,0-0.49-0.1-0.68-0.29c-0.19-0.19-0.29-0.41-0.29-0.67V32.6   c0-0.28,0.1-0.51,0.29-0.69c0.2-0.18,0.42-0.27,0.68-0.27h5.45c0.29,0,0.52,0.09,0.7,0.27c0.18,0.18,0.27,0.41,0.27,0.69v19.77   h11.67c0.29,0,0.53,0.1,0.72,0.29c0.19,0.19,0.29,0.43,0.29,0.71v4.05c0,0.28-0.1,0.51-0.29,0.69c-0.19,0.18-0.43,0.27-0.72,0.27   H108.54z M91.21,58.75c-3.68,0-6.57-0.88-8.66-2.63c-2.09-1.76-3.13-4.39-3.13-7.9V32.64c0-0.28,0.09-0.52,0.27-0.71   c0.18-0.19,0.41-0.29,0.7-0.29h5.33c0.28,0,0.52,0.09,0.72,0.29c0.19,0.19,0.29,0.43,0.29,0.71v15.5c0,1.58,0.38,2.76,1.15,3.55   c0.76,0.79,1.86,1.18,3.29,1.18c1.43,0,2.52-0.4,3.29-1.2c0.76-0.8,1.15-1.98,1.15-3.53v-15.5c0-0.28,0.1-0.52,0.29-0.71   c0.2-0.19,0.43-0.29,0.72-0.29h5.29c0.29,0,0.53,0.09,0.72,0.29c0.19,0.19,0.29,0.43,0.29,0.71v15.58c0,3.51-1.04,6.15-3.11,7.9   S94.87,58.75,91.21,58.75"/>
	<path class="st37" d="M235.25,58.38h3.13c0.16,0,0.28-0.13,0.28-0.28V31.97c0-0.16-0.13-0.28-0.28-0.28h-3.13   c-0.16,0-0.28,0.13-0.28,0.28v26.13C234.96,58.25,235.09,58.38,235.25,58.38z"/>
	<g>
		<g>
			<g>
				<path class="st36" d="M384.53,42.14c-0.1,0-0.18-0.03-0.25-0.1c-0.07-0.07-0.1-0.15-0.1-0.25V32.1c0-0.11,0.03-0.2,0.1-0.27      s0.15-0.1,0.25-0.1h6.45c0.11,0,0.2,0.04,0.27,0.1s0.1,0.16,0.1,0.27v1.04c0,0.11-0.03,0.2-0.1,0.26s-0.16,0.1-0.27,0.1h-4.77      v2.83h4.48c0.11,0,0.2,0.04,0.27,0.1c0.07,0.07,0.1,0.16,0.1,0.27v1.04c0,0.1-0.04,0.18-0.1,0.25s-0.16,0.1-0.27,0.1h-4.48v3.69      c0,0.1-0.03,0.18-0.1,0.25c-0.07,0.07-0.16,0.1-0.27,0.1H384.53z"/>
				<path class="st36" d="M392.35,42.14c-0.08,0-0.15-0.03-0.22-0.09s-0.1-0.13-0.1-0.22c0-0.04,0.01-0.08,0.03-0.13l3.58-9.59      c0.03-0.1,0.09-0.19,0.17-0.26c0.08-0.07,0.2-0.11,0.35-0.11h1.62c0.15,0,0.26,0.04,0.34,0.11c0.08,0.08,0.14,0.16,0.18,0.26      l3.58,9.59c0.01,0.05,0.01,0.09,0.01,0.13c0,0.09-0.03,0.16-0.09,0.22c-0.06,0.06-0.13,0.09-0.21,0.09h-1.29      c-0.14,0-0.24-0.03-0.3-0.1c-0.07-0.06-0.11-0.13-0.13-0.19l-0.7-1.81h-4.42l-0.7,1.81c-0.02,0.06-0.06,0.12-0.13,0.19      c-0.07,0.06-0.17,0.1-0.3,0.1H392.35z M395.3,38.33h3.38l-1.7-4.59L395.3,38.33z"/>
				<path class="st36" d="M407.19,42.29c-0.92,0-1.7-0.16-2.34-0.48c-0.64-0.32-1.13-0.78-1.46-1.38c-0.34-0.6-0.53-1.32-0.57-2.16      c-0.01-0.41-0.01-0.84-0.01-1.31c0-0.47,0-0.91,0.01-1.34c0.04-0.83,0.23-1.55,0.57-2.16c0.34-0.6,0.83-1.07,1.47-1.39      c0.64-0.32,1.41-0.48,2.33-0.48c0.67,0,1.28,0.09,1.81,0.27c0.54,0.18,0.99,0.42,1.37,0.74c0.38,0.31,0.67,0.68,0.88,1.09      c0.21,0.42,0.32,0.87,0.33,1.35c0.01,0.09-0.02,0.16-0.08,0.22s-0.14,0.09-0.23,0.09h-1.41c-0.11,0-0.2-0.03-0.27-0.08      c-0.07-0.05-0.12-0.15-0.15-0.27c-0.16-0.65-0.43-1.1-0.82-1.34c-0.39-0.24-0.87-0.36-1.44-0.36c-0.66,0-1.19,0.19-1.59,0.56      c-0.4,0.37-0.61,0.98-0.64,1.84c-0.03,0.81-0.03,1.65,0,2.5c0.03,0.85,0.24,1.46,0.64,1.84c0.4,0.37,0.93,0.56,1.59,0.56      c0.58,0,1.06-0.12,1.44-0.36c0.39-0.24,0.66-0.69,0.82-1.33c0.03-0.14,0.08-0.23,0.15-0.28c0.07-0.05,0.16-0.07,0.27-0.07h1.41      c0.09,0,0.17,0.03,0.23,0.09c0.06,0.06,0.09,0.13,0.08,0.22c-0.01,0.49-0.12,0.94-0.33,1.35c-0.21,0.42-0.5,0.78-0.88,1.09      c-0.38,0.31-0.83,0.56-1.37,0.74S407.86,42.29,407.19,42.29z"/>
				<path class="st36" d="M417.37,42.29c-0.86,0-1.61-0.15-2.25-0.44c-0.63-0.29-1.12-0.74-1.47-1.35      c-0.35-0.61-0.52-1.39-0.52-2.34V32.1c0-0.11,0.04-0.2,0.1-0.27s0.15-0.1,0.25-0.1h1.35c0.11,0,0.2,0.04,0.26,0.1      c0.06,0.07,0.1,0.16,0.1,0.27v6.05c0,0.81,0.19,1.42,0.58,1.81c0.39,0.39,0.92,0.59,1.59,0.59c0.67,0,1.2-0.2,1.58-0.59      c0.38-0.39,0.57-0.99,0.57-1.81V32.1c0-0.11,0.04-0.2,0.1-0.27s0.16-0.1,0.27-0.1h1.34c0.11,0,0.2,0.04,0.26,0.1      c0.06,0.07,0.1,0.16,0.1,0.27v6.05c0,0.95-0.17,1.73-0.51,2.34c-0.34,0.61-0.83,1.06-1.46,1.35S418.25,42.29,417.37,42.29z"/>
				<path class="st36" d="M424.07,42.14c-0.1,0-0.18-0.03-0.25-0.1c-0.07-0.07-0.1-0.15-0.1-0.25v-9.69c0-0.1,0.03-0.18,0.1-0.25      s0.15-0.1,0.25-0.1h1.38c0.1,0,0.18,0.04,0.25,0.1s0.1,0.15,0.1,0.25v8.28h4.71c0.11,0,0.2,0.04,0.27,0.1s0.1,0.16,0.1,0.27      v1.04c0,0.1-0.03,0.18-0.1,0.25c-0.07,0.07-0.16,0.1-0.27,0.1H424.07z"/>
				<path class="st36" d="M434.86,42.14c-0.1,0-0.18-0.03-0.25-0.1c-0.07-0.07-0.1-0.15-0.1-0.25v-8.22h-2.75      c-0.1,0-0.18-0.04-0.25-0.1s-0.1-0.15-0.1-0.25v-1.1c0-0.11,0.04-0.2,0.1-0.27s0.15-0.1,0.25-0.1h7.58c0.11,0,0.2,0.04,0.27,0.1      c0.07,0.07,0.1,0.16,0.1,0.27v1.1c0,0.1-0.03,0.18-0.1,0.25c-0.07,0.07-0.16,0.1-0.27,0.1h-2.74v8.22c0,0.1-0.04,0.18-0.1,0.25      c-0.07,0.07-0.16,0.1-0.27,0.1H434.86z"/>
				<path class="st36" d="M440.45,42.14c-0.08,0-0.15-0.03-0.22-0.09s-0.1-0.13-0.1-0.22c0-0.04,0.01-0.08,0.03-0.13l3.58-9.59      c0.03-0.1,0.09-0.19,0.17-0.26c0.08-0.07,0.2-0.11,0.35-0.11h1.62c0.15,0,0.26,0.04,0.34,0.11c0.08,0.08,0.14,0.16,0.18,0.26      l3.58,9.59c0.01,0.05,0.01,0.09,0.01,0.13c0,0.09-0.03,0.16-0.09,0.22c-0.06,0.06-0.13,0.09-0.21,0.09h-1.29      c-0.14,0-0.24-0.03-0.3-0.1c-0.07-0.06-0.11-0.13-0.13-0.19l-0.7-1.81h-4.42l-0.7,1.81c-0.02,0.06-0.06,0.12-0.13,0.19      c-0.07,0.06-0.17,0.1-0.3,0.1H440.45z M443.4,38.33h3.38l-1.7-4.59L443.4,38.33z"/>
				<path class="st36" d="M451.63,42.14c-0.1,0-0.18-0.03-0.25-0.1c-0.07-0.07-0.1-0.15-0.1-0.25V32.1c0-0.11,0.03-0.2,0.1-0.27      s0.15-0.1,0.25-0.1h3.63c1,0,1.83,0.15,2.48,0.46c0.65,0.31,1.14,0.76,1.47,1.37s0.5,1.34,0.51,2.22      c0.02,0.44,0.03,0.82,0.03,1.16s-0.01,0.72-0.03,1.14c-0.02,0.92-0.19,1.68-0.51,2.28s-0.8,1.05-1.43,1.34      c-0.64,0.29-1.46,0.44-2.45,0.44H451.63z M453.34,40.43h1.92c0.55,0,1.01-0.08,1.35-0.24c0.35-0.16,0.6-0.41,0.77-0.77      c0.16-0.35,0.25-0.81,0.26-1.39c0.01-0.3,0.02-0.56,0.02-0.78c0-0.22,0-0.45,0-0.67c0-0.22-0.01-0.48-0.02-0.77      c-0.02-0.81-0.22-1.41-0.61-1.8s-1-0.58-1.84-0.58h-1.84V40.43z"/>
				<path class="st36" d="M465.25,42.14c-0.1,0-0.18-0.03-0.25-0.1c-0.07-0.07-0.1-0.15-0.1-0.25V32.1c0-0.11,0.03-0.2,0.1-0.27      s0.15-0.1,0.25-0.1h3.63c1,0,1.83,0.15,2.48,0.46c0.65,0.31,1.14,0.76,1.47,1.37s0.5,1.34,0.51,2.22      c0.02,0.44,0.03,0.82,0.03,1.16s-0.01,0.72-0.03,1.14c-0.02,0.92-0.19,1.68-0.51,2.28s-0.8,1.05-1.43,1.34      c-0.64,0.29-1.46,0.44-2.45,0.44H465.25z M466.96,40.43h1.92c0.55,0,1.01-0.08,1.35-0.24c0.35-0.16,0.6-0.41,0.77-0.77      c0.16-0.35,0.25-0.81,0.26-1.39c0.01-0.3,0.02-0.56,0.02-0.78c0-0.22,0-0.45,0-0.67c0-0.22-0.01-0.48-0.02-0.77      c-0.02-0.81-0.22-1.41-0.61-1.8s-1-0.58-1.84-0.58h-1.84V40.43z"/>
				<path class="st36" d="M475.58,42.14c-0.1,0-0.18-0.03-0.25-0.1c-0.07-0.07-0.1-0.15-0.1-0.25V32.1c0-0.11,0.03-0.2,0.1-0.27      s0.15-0.1,0.25-0.1h6.54c0.11,0,0.2,0.04,0.27,0.1s0.1,0.16,0.1,0.27v0.98c0,0.1-0.04,0.18-0.1,0.25s-0.16,0.1-0.27,0.1h-4.89      v2.63h4.56c0.11,0,0.2,0.03,0.27,0.1s0.1,0.15,0.1,0.26v0.92c0,0.11-0.04,0.2-0.1,0.26s-0.16,0.1-0.27,0.1h-4.56v2.72h5.01      c0.11,0,0.2,0.04,0.27,0.1s0.1,0.16,0.1,0.27v0.98c0,0.1-0.04,0.18-0.1,0.25c-0.07,0.07-0.16,0.1-0.27,0.1H475.58z"/>
			</g>
		</g>
	</g>
	<g>
		<g>
			<g>
				<path class="st36" d="M388.42,58.31c-0.93,0-1.73-0.15-2.4-0.46s-1.18-0.75-1.55-1.34s-0.57-1.32-0.61-2.2      c-0.01-0.4-0.01-0.84-0.01-1.3c0-0.46,0-0.9,0.01-1.33c0.04-0.86,0.25-1.58,0.62-2.18c0.37-0.59,0.9-1.05,1.56-1.36      c0.67-0.31,1.46-0.46,2.38-0.46c0.65,0,1.25,0.08,1.8,0.24c0.55,0.16,1.03,0.4,1.45,0.71c0.41,0.31,0.73,0.68,0.97,1.12      s0.35,0.93,0.36,1.48c0.01,0.09-0.02,0.16-0.08,0.22c-0.06,0.06-0.14,0.09-0.23,0.09h-1.99c-0.13,0-0.23-0.03-0.29-0.08      c-0.07-0.05-0.13-0.16-0.18-0.3c-0.14-0.52-0.36-0.88-0.67-1.07s-0.69-0.29-1.14-0.29c-0.54,0-0.97,0.15-1.28,0.45      s-0.49,0.8-0.52,1.5c-0.03,0.81-0.03,1.63,0,2.48c0.03,0.7,0.2,1.2,0.52,1.5s0.74,0.45,1.28,0.45c0.45,0,0.84-0.1,1.15-0.29      c0.31-0.2,0.54-0.55,0.66-1.06c0.04-0.15,0.1-0.25,0.17-0.3c0.07-0.05,0.17-0.08,0.3-0.08h1.99c0.09,0,0.17,0.03,0.23,0.09      c0.06,0.06,0.09,0.13,0.08,0.22c-0.01,0.55-0.13,1.04-0.36,1.48s-0.55,0.81-0.97,1.12s-0.9,0.55-1.45,0.71      S389.07,58.31,388.42,58.31z"/>
				<path class="st36" d="M394.79,58.16c-0.11,0-0.2-0.03-0.27-0.1c-0.07-0.07-0.1-0.16-0.1-0.27V48.2c0-0.11,0.04-0.2,0.1-0.27      c0.07-0.07,0.16-0.1,0.27-0.1h1.98c0.11,0,0.2,0.04,0.27,0.1c0.07,0.07,0.1,0.16,0.1,0.27v9.59c0,0.11-0.04,0.2-0.1,0.27      c-0.07,0.07-0.16,0.1-0.27,0.1H394.79z"/>
				<path class="st36" d="M399.45,58.16c-0.11,0-0.2-0.03-0.27-0.1c-0.07-0.07-0.1-0.16-0.1-0.27V48.2c0-0.11,0.04-0.2,0.1-0.27      c0.07-0.07,0.16-0.1,0.27-0.1h6.89c0.11,0,0.2,0.04,0.27,0.1c0.07,0.07,0.1,0.16,0.1,0.27v1.39c0,0.11-0.04,0.2-0.1,0.27      c-0.07,0.07-0.16,0.1-0.27,0.1h-4.71v1.99h4.38c0.11,0,0.2,0.04,0.27,0.11c0.07,0.07,0.1,0.17,0.1,0.27v1.28      c0,0.1-0.03,0.18-0.1,0.26c-0.07,0.07-0.16,0.11-0.27,0.11h-4.38v2.05h4.82c0.11,0,0.2,0.03,0.27,0.1      c0.07,0.07,0.1,0.16,0.1,0.26v1.39c0,0.11-0.04,0.2-0.1,0.27c-0.07,0.07-0.16,0.1-0.27,0.1H399.45z"/>
				<path class="st36" d="M408.76,58.16c-0.11,0-0.2-0.03-0.27-0.1c-0.07-0.07-0.1-0.16-0.1-0.27V48.2c0-0.11,0.04-0.2,0.1-0.27      c0.07-0.07,0.16-0.1,0.27-0.1h1.56c0.17,0,0.29,0.04,0.36,0.11c0.07,0.07,0.12,0.13,0.14,0.17l3.6,5.68V48.2      c0-0.11,0.04-0.2,0.1-0.27c0.07-0.07,0.16-0.1,0.27-0.1h1.77c0.11,0,0.2,0.04,0.27,0.1c0.07,0.07,0.1,0.16,0.1,0.27v9.59      c0,0.1-0.03,0.18-0.1,0.26c-0.07,0.07-0.16,0.11-0.27,0.11h-1.58c-0.16,0-0.27-0.04-0.35-0.12c-0.07-0.08-0.12-0.13-0.14-0.16      l-3.6-5.46v5.37c0,0.11-0.03,0.2-0.1,0.27c-0.07,0.07-0.16,0.1-0.27,0.1H408.76z"/>
				<path class="st36" d="M423.12,58.31c-0.93,0-1.73-0.15-2.4-0.46s-1.18-0.75-1.55-1.34s-0.57-1.32-0.61-2.2      c-0.01-0.4-0.01-0.84-0.01-1.3c0-0.46,0-0.9,0.01-1.33c0.04-0.86,0.25-1.58,0.62-2.18c0.37-0.59,0.9-1.05,1.56-1.36      c0.67-0.31,1.46-0.46,2.38-0.46c0.65,0,1.25,0.08,1.8,0.24c0.55,0.16,1.03,0.4,1.45,0.71c0.41,0.31,0.73,0.68,0.97,1.12      s0.35,0.93,0.36,1.48c0.01,0.09-0.02,0.16-0.08,0.22c-0.06,0.06-0.14,0.09-0.23,0.09h-1.99c-0.13,0-0.23-0.03-0.29-0.08      c-0.07-0.05-0.13-0.16-0.18-0.3c-0.14-0.52-0.36-0.88-0.67-1.07s-0.69-0.29-1.14-0.29c-0.54,0-0.97,0.15-1.28,0.45      s-0.49,0.8-0.52,1.5c-0.03,0.81-0.03,1.63,0,2.48c0.03,0.7,0.2,1.2,0.52,1.5s0.74,0.45,1.28,0.45c0.45,0,0.84-0.1,1.15-0.29      c0.31-0.2,0.54-0.55,0.66-1.06c0.04-0.15,0.1-0.25,0.17-0.3c0.07-0.05,0.17-0.08,0.3-0.08h1.99c0.09,0,0.17,0.03,0.23,0.09      c0.06,0.06,0.09,0.13,0.08,0.22c-0.01,0.55-0.13,1.04-0.36,1.48s-0.55,0.81-0.97,1.12s-0.9,0.55-1.45,0.71      S423.76,58.31,423.12,58.31z"/>
				<path class="st36" d="M429.49,58.16c-0.11,0-0.2-0.03-0.27-0.1c-0.07-0.07-0.1-0.16-0.1-0.27V48.2c0-0.11,0.04-0.2,0.1-0.27      c0.07-0.07,0.16-0.1,0.27-0.1h1.98c0.11,0,0.2,0.04,0.27,0.1c0.07,0.07,0.1,0.16,0.1,0.27v9.59c0,0.11-0.04,0.2-0.1,0.27      c-0.07,0.07-0.16,0.1-0.27,0.1H429.49z"/>
				<path class="st36" d="M433.19,58.16c-0.08,0-0.15-0.03-0.21-0.1c-0.06-0.06-0.1-0.13-0.1-0.21c0-0.05,0-0.09,0.01-0.13      l3.47-9.47c0.03-0.11,0.09-0.2,0.18-0.29c0.09-0.08,0.22-0.13,0.39-0.13h2.18c0.17,0,0.3,0.04,0.39,0.13      c0.09,0.08,0.15,0.18,0.18,0.29l3.45,9.47c0.02,0.04,0.03,0.08,0.03,0.13c0,0.08-0.03,0.15-0.1,0.21      c-0.06,0.06-0.14,0.1-0.23,0.1h-1.81c-0.15,0-0.26-0.04-0.33-0.11c-0.07-0.07-0.12-0.14-0.14-0.2l-0.58-1.5h-3.94l-0.56,1.5      c-0.02,0.06-0.06,0.12-0.13,0.2c-0.07,0.07-0.19,0.11-0.35,0.11H433.19z M436.66,54.22h2.74l-1.39-3.89L436.66,54.22z"/>
				<path class="st36" d="M448.07,58.31c-0.98,0-1.8-0.14-2.45-0.42c-0.65-0.28-1.14-0.65-1.47-1.1c-0.33-0.45-0.51-0.93-0.53-1.45      c0-0.08,0.03-0.15,0.1-0.21c0.06-0.06,0.14-0.1,0.23-0.1h1.86c0.14,0,0.24,0.02,0.32,0.07c0.07,0.05,0.14,0.11,0.2,0.19      c0.08,0.15,0.19,0.29,0.33,0.43s0.33,0.25,0.56,0.33c0.23,0.08,0.52,0.12,0.86,0.12c0.57,0,1-0.09,1.29-0.27      c0.29-0.18,0.43-0.42,0.43-0.72c0-0.22-0.08-0.4-0.24-0.54s-0.41-0.27-0.76-0.38c-0.35-0.11-0.81-0.23-1.39-0.35      c-0.75-0.16-1.38-0.36-1.91-0.61s-0.93-0.58-1.2-0.99s-0.41-0.92-0.41-1.53c0-0.6,0.17-1.14,0.51-1.61s0.81-0.84,1.42-1.11      c0.61-0.27,1.33-0.4,2.17-0.4c0.68,0,1.28,0.09,1.79,0.27c0.52,0.18,0.95,0.41,1.31,0.71c0.35,0.29,0.62,0.61,0.8,0.94      c0.18,0.33,0.28,0.65,0.29,0.97c0,0.08-0.03,0.15-0.09,0.21c-0.06,0.06-0.13,0.1-0.22,0.1h-1.95c-0.11,0-0.2-0.02-0.28-0.06      c-0.08-0.04-0.15-0.1-0.21-0.19c-0.06-0.22-0.21-0.41-0.46-0.57c-0.25-0.16-0.58-0.24-0.98-0.24c-0.43,0-0.77,0.08-1.01,0.23      c-0.24,0.15-0.36,0.39-0.36,0.7c0,0.2,0.07,0.37,0.2,0.52s0.35,0.28,0.66,0.38c0.31,0.11,0.74,0.22,1.28,0.34      c0.89,0.17,1.62,0.38,2.17,0.63s0.95,0.58,1.21,0.97s0.38,0.9,0.38,1.5c0,0.67-0.19,1.25-0.57,1.73      c-0.38,0.49-0.9,0.86-1.57,1.11C449.71,58.18,448.94,58.31,448.07,58.31z"/>
				<path class="st36" d="M457.26,58.16c-0.11,0-0.2-0.03-0.27-0.1c-0.07-0.07-0.1-0.16-0.1-0.27V48.2c0-0.11,0.04-0.2,0.1-0.27      c0.07-0.07,0.16-0.1,0.27-0.1h3.83c0.96,0,1.79,0.16,2.46,0.46s1.2,0.76,1.56,1.36s0.56,1.33,0.59,2.21      c0.01,0.43,0.01,0.81,0.01,1.14s0,0.7-0.01,1.12c-0.04,0.92-0.23,1.67-0.58,2.27c-0.35,0.6-0.86,1.04-1.52,1.33      c-0.66,0.29-1.48,0.44-2.44,0.44H457.26z M459.54,56.04h1.56c0.42,0,0.77-0.07,1.05-0.2s0.49-0.34,0.63-0.63      s0.22-0.66,0.23-1.12c0.02-0.29,0.03-0.54,0.04-0.77c0-0.23,0-0.45,0-0.68c0-0.23-0.02-0.48-0.04-0.75      c-0.02-0.67-0.19-1.16-0.52-1.47c-0.33-0.31-0.82-0.46-1.47-0.46h-1.49V56.04z"/>
				<path class="st36" d="M467.71,58.16c-0.11,0-0.2-0.03-0.27-0.1c-0.07-0.07-0.1-0.16-0.1-0.27V48.2c0-0.11,0.04-0.2,0.1-0.27      c0.07-0.07,0.16-0.1,0.27-0.1h6.89c0.11,0,0.2,0.04,0.27,0.1c0.07,0.07,0.1,0.16,0.1,0.27v1.39c0,0.11-0.04,0.2-0.1,0.27      c-0.07,0.07-0.16,0.1-0.27,0.1h-4.71v1.99h4.38c0.11,0,0.2,0.04,0.27,0.11c0.07,0.07,0.1,0.17,0.1,0.27v1.28      c0,0.1-0.03,0.18-0.1,0.26c-0.07,0.07-0.16,0.11-0.27,0.11h-4.38v2.05h4.82c0.11,0,0.2,0.03,0.27,0.1      c0.07,0.07,0.1,0.16,0.1,0.26v1.39c0,0.11-0.04,0.2-0.1,0.27c-0.07,0.07-0.16,0.1-0.27,0.1H467.71z"/>
				<path class="st36" d="M477.02,58.16c-0.11,0-0.2-0.03-0.27-0.1c-0.07-0.07-0.1-0.16-0.1-0.27V48.2c0-0.11,0.04-0.2,0.1-0.27      c0.07-0.07,0.16-0.1,0.27-0.1h1.95c0.1,0,0.18,0.04,0.26,0.1c0.07,0.07,0.11,0.16,0.11,0.27v7.73h4.45      c0.11,0,0.2,0.04,0.27,0.11c0.07,0.07,0.11,0.17,0.11,0.27v1.47c0,0.11-0.04,0.2-0.11,0.27c-0.07,0.07-0.17,0.1-0.27,0.1H477.02      z"/>
				<path class="st36" d="M488.73,58.16c-0.1,0-0.18-0.03-0.26-0.1c-0.07-0.07-0.11-0.16-0.11-0.27V48.2c0-0.11,0.04-0.2,0.11-0.27      c0.07-0.07,0.16-0.1,0.26-0.1h1.59c0.16,0,0.28,0.04,0.36,0.13c0.08,0.08,0.14,0.15,0.16,0.2l2.6,4.66l2.6-4.66      c0.03-0.05,0.08-0.12,0.16-0.2c0.07-0.08,0.19-0.13,0.36-0.13h1.58c0.11,0,0.2,0.04,0.27,0.1c0.07,0.07,0.11,0.16,0.11,0.27      v9.59c0,0.11-0.04,0.2-0.11,0.27c-0.07,0.07-0.16,0.1-0.27,0.1h-1.75c-0.11,0-0.2-0.03-0.27-0.1c-0.07-0.07-0.11-0.16-0.11-0.27      v-5.53l-1.67,3.08c-0.04,0.09-0.1,0.17-0.18,0.24c-0.08,0.07-0.19,0.1-0.33,0.1h-0.77c-0.14,0-0.25-0.03-0.32-0.1      c-0.08-0.07-0.14-0.15-0.19-0.24l-1.67-3.08v5.53c0,0.11-0.03,0.2-0.1,0.27c-0.07,0.07-0.16,0.1-0.27,0.1H488.73z"/>
				<path class="st36" d="M499.85,58.16c-0.08,0-0.15-0.03-0.21-0.1c-0.06-0.06-0.1-0.13-0.1-0.21c0-0.05,0-0.09,0.01-0.13      l3.47-9.47c0.03-0.11,0.09-0.2,0.18-0.29c0.09-0.08,0.22-0.13,0.39-0.13h2.18c0.17,0,0.3,0.04,0.39,0.13      c0.09,0.08,0.15,0.18,0.18,0.29l3.45,9.47c0.02,0.04,0.03,0.08,0.03,0.13c0,0.08-0.03,0.15-0.1,0.21      c-0.06,0.06-0.14,0.1-0.23,0.1h-1.81c-0.15,0-0.26-0.04-0.33-0.11c-0.07-0.07-0.12-0.14-0.14-0.2l-0.58-1.5h-3.94l-0.56,1.5      c-0.02,0.06-0.06,0.12-0.13,0.2c-0.07,0.07-0.19,0.11-0.35,0.11H499.85z M503.32,54.22h2.74l-1.39-3.89L503.32,54.22z"/>
				<path class="st36" d="M511.25,58.16c-0.11,0-0.2-0.03-0.27-0.1c-0.07-0.07-0.1-0.16-0.1-0.27V48.2c0-0.11,0.04-0.2,0.1-0.27      c0.07-0.07,0.16-0.1,0.27-0.1h4.01c1.27,0,2.27,0.29,3,0.88c0.73,0.58,1.1,1.41,1.1,2.49c0,0.7-0.17,1.29-0.51,1.77      c-0.34,0.48-0.78,0.85-1.33,1.09l2.04,3.63c0.03,0.06,0.04,0.11,0.04,0.16c0,0.08-0.03,0.15-0.1,0.21      c-0.06,0.06-0.14,0.1-0.23,0.1h-1.95c-0.19,0-0.32-0.05-0.41-0.14c-0.09-0.09-0.15-0.18-0.19-0.26l-1.68-3.25h-1.52v3.27      c0,0.11-0.03,0.2-0.1,0.27c-0.07,0.07-0.16,0.1-0.26,0.1H511.25z M513.52,52.44h1.71c0.46,0,0.81-0.11,1.04-0.34      c0.23-0.23,0.35-0.54,0.35-0.93c0-0.38-0.11-0.69-0.33-0.93c-0.22-0.24-0.57-0.35-1.05-0.35h-1.71V52.44z"/>
			</g>
		</g>
	</g>
	<g>
		<path class="st44" d="M269.86,56.98v-18.4h-3.08c-0.57,0-1.02-0.46-1.02-1.03v-4.61c0-0.57,0.46-1.03,1.02-1.03h9.59    c0.56,0,1.02,0.46,1.02,1.03v2.56c2.41-3.23,5.94-4.36,9.02-4.36c4,0,6.41,1.9,7.79,4.2c1.74-2.36,4.46-4.2,8.71-4.2    c5.95,0,10.2,4.46,10.2,10.92v14.91c0,0.87-0.72,1.59-1.59,1.59h-6.2c-0.56,0-1.02-0.46-1.02-1.02V43.65    c0-3.08-1.74-4.82-4.2-4.82c-2.46,0-4.2,1.74-4.2,4.82V57.6c0,0.56-0.46,1.02-1.02,1.02h-6.77c-0.57,0-1.03-0.46-1.03-1.02V43.65    c0-3.08-1.74-4.82-4.2-4.82c-2.46,0-4.2,1.74-4.2,4.82v13.89c0,0.56-0.46,1.02-1.02,1.02h-6.2    C270.58,58.57,269.86,57.85,269.86,56.98"/>
		<path class="st44" d="M318.87,51.45c0-4.61,3.48-8.92,12.46-8.92h6.35V41.5c0-2.82-2.1-3.54-4.97-3.54    c-2.46,0-5.69,1.23-7.69,2.82c-0.41,0.31-0.97,0.46-1.33,0.1l-3.59-3.49c-0.46-0.46-0.57-1.03-0.16-1.49    c2.1-2.26,6.66-4.51,12.97-4.51c9.53,0,13.63,4.92,13.63,10.86v14.77c0,0.98-0.57,1.54-1.54,1.54h-5.43    c-0.97,0-1.54-0.56-1.54-1.54v-1.79c-1.49,1.95-4.05,3.84-9.69,3.84C322.81,59.08,318.87,56.36,318.87,51.45 M331.12,52.83    c3.74,0,6.56-1.12,6.66-5.38h-5.07c-3.74,0-4.92,1.38-4.92,2.97C327.79,52.11,329.22,52.83,331.12,52.83"/>
		<path class="st44" d="M354.34,57.55V32.94c0-0.57,0.46-1.03,1.03-1.03h6.36c0.56,0,1.02,0.46,1.02,1.03v2.51    c1.69-1.9,4.31-3.54,7.53-3.54h3.39c0.56,0,1.02,0.46,1.02,1.03v5.79c0,0.57-0.46,1.03-1.02,1.03h-5.75    c-3.07,0-4.66,2.1-4.66,5.13v12.66c0,0.56-0.46,1.02-1.02,1.02h-6.87C354.8,58.57,354.34,58.11,354.34,57.55"/>
	</g>
</g>
<g id="Capa_4">
</g>
<g id="Capa_3">
</g>
</svg>